<?xml version="1.0" standalone="no"?>
<!DOCTYPE svg PUBLIC "-//W3C//DTD SVG 20010904//EN"
 "http://www.w3.org/TR/2001/REC-SVG-20010904/DTD/svg10.dtd">
<svg version="1.0" xmlns="http://www.w3.org/2000/svg"
 width="1920.000000pt" height="1920.000000pt" viewBox="0 0 1920.000000 1920.000000"
 preserveAspectRatio="xMidYMid meet">
<metadata>
Created by potrace 1.11, written by Peter Selinger 2001-2013
</metadata>
<g transform="translate(0.000000,1920.000000) scale(0.100000,-0.100000)"
fill="#000000" stroke="none">
<path d="M9630 14415 c-354 -61 -944 -317 -1451 -631 -464 -287 -939 -741
-1344 -1284 -423 -567 -670 -1053 -845 -1660 -213 -740 -290 -1678 -205 -2480
69 -643 231 -1209 510 -1775 409 -830 927 -1418 1572 -1784 656 -372 1537
-519 2393 -400 828 115 1731 478 2720 1092 270 168 730 480 730 496 0 4 -51
75 -113 158 l-113 151 -189 -127 c-608 -407 -1065 -622 -1628 -766 -516 -132
-1035 -154 -1477 -64 -793 162 -1493 691 -2052 1549 -302 463 -461 853 -563
1379 -72 372 -133 919 -163 1449 -6 114 -5 133 8 137 8 2 1469 317 3245 701
1777 383 3234 700 3238 704 4 4 3 113 -4 244 l-12 236 -58 0 c-32 0 -93 5
-135 11 -231 32 -299 102 -508 524 -234 471 -444 779 -735 1078 -283 291 -629
545 -976 716 -232 115 -455 192 -740 256 -413 92 -873 130 -1105 90z m85 -845
c432 -68 764 -221 1143 -525 341 -274 582 -553 797 -924 140 -242 214 -421
222 -541 9 -124 -53 -191 -233 -249 -138 -45 -702 -183 -924 -226 -463 -91
-1359 -301 -1515 -355 -70 -25 -432 -105 -1445 -319 -157 -34 -295 -63 -307
-66 -22 -5 -23 -4 -17 57 69 771 225 1457 479 2108 225 577 571 918 1042 1029
51 12 125 26 165 31 117 14 444 4 593 -20z"/>
</g>
</svg>
